# xmcd CD database file
#
# Track frame offsets:
#	150
#	29877
#	57172
#	82305
#	97280
#	121752
#	144812
#	163397
#	184540
#	204760
#
# Disc length: 3027 seconds
#
# Revision: 0
# Processed by: cddbd v1.5.1PL2 Copyright (c) Steve Scherf et al.
# Submitted via: CDex 1.51
#
DISCID=8c0bd10a
DTITLE=Various Artist - 東京ジャズストーリー スタンダード編 JazzCITY Selection For Lovers
DYEAR=1900
DGENRE=Jazz
TTITLE0=フライ・ミー・トゥ・ザ・ムーン
TTITLE1=マイ・ファニー・ヴァレンタイン
TTITLE2=サマータイム
TTITLE3=いつの頃からか
TTITLE4=ナイト・アンド・デイ
TTITLE5=オールド・デヴィル・ムーン
TTITLE6=あなたと夜と音楽と
TTITLE7=煙が目にしみる
TTITLE8=枯葉
TTITLE9=ラヴ・フォー・セール
EXTD=
EXTT0=
EXTT1=
EXTT2=
EXTT3=
EXTT4=
EXTT5=
EXTT6=
EXTT7=
EXTT8=
EXTT9=
PLAYORDER=
